<?xml version="1.0" encoding="utf-8"?>
<!-- Generator: Adobe Illustrator 24.2.1, SVG Export Plug-In . SVG Version: 6.00 Build 0)  -->
<svg version="1.1" id="Layer_1" xmlns="http://www.w3.org/2000/svg" xmlns:xlink="http://www.w3.org/1999/xlink" x="0px" y="0px"
	 viewBox="0 0 32 32" style="enable-background:new 0 0 32 32;" xml:space="preserve">
<style type="text/css">
	.st0{fill:#FFFFFF;}
</style>
<g id="XMLID_1_">
	<g>
		<path d="M19.2,21.8c0.4,0.4,0.4,1,0,1.4c-0.4,0.4-1,0.4-1.4,0l-6.5-6.5C11.1,16.5,11,16.3,11,16c0-0.3,0.1-0.5,0.3-0.7l6.5-6.5
			c0.4-0.4,1-0.4,1.4,0c0.4,0.4,0.4,1,0,1.4L13.4,16L19.2,21.8z"/>
		<path class="st0" d="M16,1c8.3,0,15,6.7,15,15s-6.7,15-15,15S1,24.3,1,16S7.7,1,16,1z M19.2,10.2c0.4-0.4,0.4-1,0-1.4
			c-0.4-0.4-1-0.4-1.4,0l-6.5,6.5C11.1,15.5,11,15.7,11,16c0,0.3,0.1,0.5,0.3,0.7l6.5,6.5c0.4,0.4,1,0.4,1.4,0c0.4-0.4,0.4-1,0-1.4
			L13.4,16L19.2,10.2z"/>
	</g>
	<g>
	</g>
</g>
</svg>
