<?xml version="1.0" encoding="utf-8"?>
<!-- Generator: Adobe Illustrator 24.2.1, SVG Export Plug-In . SVG Version: 6.00 Build 0)  -->
<svg version="1.1" id="SvgjsSvg1001" xmlns:svgjs="http://svgjs.com/svgjs"
	 xmlns="http://www.w3.org/2000/svg" xmlns:xlink="http://www.w3.org/1999/xlink" x="0px" y="0px" viewBox="0 0 288 288"
	 style="enable-background:new 0 0 288 288;" xml:space="preserve">
<style type="text/css">
	.st0{fill:#FFFFFF;}
	.st1{fill:#777777;}
</style>
<g id="SvgjsG1008" transform="matrix(1,0,0,1,0,0)">
	<g id="XMLID_1_">
		<g>
			<path class="st0" d="M144,36.5c59.3,0,107.5,48.2,107.5,107.5S203.3,251.5,144,251.5S36.5,203.3,36.5,144S84.7,36.5,144,36.5z
				 M202.6,184.4c1.6-1.6,1.6-4.1,0-5.8L168,144l34.6-34.6c0.8-0.8,1.2-1.8,1.2-2.9c0-1.1-0.4-2.1-1.2-2.9l-18.3-18.3
				c-1.6-1.6-4.1-1.6-5.8,0L144,120l-34.6-34.7c-1.6-1.6-4.2-1.6-5.8,0l-18.3,18.3c-0.8,0.8-1.2,1.8-1.2,2.9c0,1.1,0.4,2.1,1.2,2.9
				L120,144l-34.6,34.6c-0.8,0.8-1.2,1.8-1.2,2.9c0,1.1,0.4,2.1,1.2,2.9l18.3,18.3c1.6,1.6,4.2,1.6,5.8,0L144,168l34.6,34.7
				c0.8,0.8,1.9,1.2,2.9,1.2c1,0,2.1-0.4,2.9-1.2L202.6,184.4z"/>
			<path class="st1" d="M144,9.9c73.9,0,134.1,60.2,134.1,134.1S217.9,278.1,144,278.1S9.9,217.9,9.9,144S70.1,9.9,144,9.9z
				 M270,144c0-69.5-56.5-126-126-126S18,74.5,18,144s56.5,126,126,126S270,213.5,270,144z"/>
			<path class="st1" d="M144,18c69.5,0,126,56.5,126,126s-56.5,126-126,126S18,213.5,18,144S74.5,18,144,18z M259.7,144
				c0-63.8-51.9-115.7-115.7-115.7S28.3,80.2,28.3,144S80.2,259.7,144,259.7S259.7,207.8,259.7,144z"/>
			<path class="st1" d="M144,28.3c63.8,0,115.7,51.9,115.7,115.7S207.8,259.7,144,259.7S28.3,207.8,28.3,144S80.2,28.3,144,28.3z
				 M251.5,144c0-59.3-48.2-107.5-107.5-107.5S36.5,84.7,36.5,144S84.7,251.5,144,251.5S251.5,203.3,251.5,144z"/>
			<path class="st0" d="M202.6,178.6c1.6,1.6,1.6,4.1,0,5.8l-18.3,18.3c-0.8,0.8-1.9,1.2-2.9,1.2c-1,0-2.1-0.4-2.9-1.2L144,168
				l-34.6,34.6c-1.6,1.6-4.2,1.6-5.8,0l-18.3-18.3c-0.8-0.8-1.2-1.8-1.2-2.9c0-1.1,0.4-2.1,1.2-2.9L120,144l-34.6-34.6
				c-0.8-0.8-1.2-1.8-1.2-2.9c0-1.1,0.4-2.1,1.2-2.9l18.3-18.3c1.6-1.6,4.2-1.6,5.8,0L144,120l34.6-34.6c1.6-1.6,4.1-1.6,5.8,0
				l18.3,18.3c0.8,0.8,1.2,1.8,1.2,2.9c0,1.1-0.4,2.1-1.2,2.9L168,144L202.6,178.6z M159.4,141.1l34.6-34.6L181.5,94l-34.6,34.6
				c-1.6,1.6-4.1,1.6-5.7,0L106.5,94L94,106.5l34.6,34.6c0.8,0.8,1.2,1.8,1.2,2.9s-0.4,2.1-1.2,2.9L94,181.5l12.5,12.5l34.6-34.6
				c0.8-0.8,1.8-1.2,2.9-1.2s2.1,0.4,2.9,1.2l34.6,34.6l12.5-12.5l-34.6-34.6C157.8,145.3,157.8,142.7,159.4,141.1z"/>
		</g>
		<g>
		</g>
	</g>
</g>
</svg>
