<?xml version="1.0" encoding="utf-8"?>
<!-- Generator: Adobe Illustrator 24.2.1, SVG Export Plug-In . SVG Version: 6.00 Build 0)  -->
<svg version="1.1" id="SvgjsSvg1013" xmlns:svgjs="http://svgjs.com/svgjs"
	 xmlns="http://www.w3.org/2000/svg" xmlns:xlink="http://www.w3.org/1999/xlink" x="0px" y="0px" viewBox="0 0 288 288"
	 style="enable-background:new 0 0 288 288;" xml:space="preserve">
<style type="text/css">
	.st0{fill:#60C5B8;}
	.st1{fill:#FFFFFF;}
	.st2{fill:#576D7E;}
	.st3{fill-rule:evenodd;clip-rule:evenodd;fill:#2B4255;}
</style>
<g id="SvgjsG1015" transform="matrix(1,0,0,1,0,0)">
	<g transform="translate(0 -1020.362)">
		<path class="st0" d="M128.9,1039.8c-4.6,0-8.4,3.8-8.4,8.4v18.2c-6.7,1.9-13.2,4.5-19.2,7.9l-12.8-12.8c-3.2-3.2-8.6-3.2-11.9,0
			l-21.4,21.4c-3.2,3.2-3.2,8.6,0,11.9l12.9,12.8c-3.4,6.1-6.1,12.5-8,19.2H41.9c-4.6,0-8.4,3.8-8.4,8.4v30.3c0,4.6,3.8,8.4,8.4,8.4
			h18.2c1.9,6.7,4.5,13.1,7.9,19.2l-12.8,12.8c-3.2,3.2-3.2,8.6,0,11.9l21.4,21.4c3.2,3.2,8.6,3.2,11.9,0l12.7-12.7
			c3.8,2.2,7.7,4.3,11.8,5.8c2.3,1,5,0,6.1-2.3c1-2.3,0-5-2.3-6.1c-0.2-0.1-0.3-0.1-0.5-0.2c-4.7-1.8-9.3-4-13.6-6.7
			c-1.8-1.1-4.2-0.9-5.7,0.6l-14.4,14.4l-20.3-20.3l14.4-14.4c1.5-1.5,1.8-3.9,0.6-5.7c-4.5-7.3-7.8-15.2-9.7-23.6
			c-0.5-2.1-2.4-3.6-4.5-3.6H42.7V1136H63c2.1,0,4-1.5,4.5-3.6c2-8.3,5.2-16.3,9.8-23.5c1.1-1.8,0.9-4.2-0.7-5.7l-14.4-14.4
			l20.2-20.3l14.4,14.4c1.5,1.5,3.9,1.8,5.7,0.7c7.3-4.5,15.2-7.8,23.6-9.7c2.1-0.5,3.6-2.3,3.6-4.5V1049h28.6v20.4
			c0,2.1,1.5,4,3.6,4.5c8.3,2,16.3,5.2,23.6,9.8c1.8,1.1,4.2,0.9,5.7-0.6l14.4-14.4l20.2,20.3l-14.4,14.4c-1.5,1.5-1.8,3.9-0.6,5.7
			c4.5,7.3,7.8,15.3,9.7,23.6c0.5,2.1,2.4,3.6,4.5,3.6h20.4v28.6H225c-2.1,0-4,1.5-4.5,3.5c-2,8.3-5.2,16.3-9.8,23.6
			c-1.1,1.8-0.8,4.2,0.7,5.7l14.4,14.4l-20.3,20.3l-14.4-14.4c-1.5-1.5-3.9-1.8-5.7-0.7c-4.5,2.8-9.3,5.1-14.3,7
			c-2.4,0.8-3.8,3.4-3,5.8c0.8,2.4,3.4,3.8,5.8,3c0.1,0,0.2-0.1,0.4-0.1c4.4-1.6,8.5-3.8,12.6-6.1l12.7,12.7c3.2,3.2,8.6,3.2,11.9,0
			l21.4-21.4c3.2-3.2,3.2-8.6,0-11.9L220,1193c3.4-6.1,6.1-12.5,8-19.2h18.2c4.6,0,8.4-3.8,8.4-8.4v-30.3c0-4.6-3.8-8.4-8.4-8.4
			h-18.2c-1.9-6.7-4.5-13.1-7.9-19.2l12.8-12.8c3.2-3.2,3.2-8.6,0-11.9l-21.4-21.4c-3.2-3.2-8.6-3.2-11.9,0l-12.8,12.8
			c-6.1-3.4-12.5-6.1-19.2-7.9v-18.2c0-4.6-3.8-8.4-8.4-8.4L128.9,1039.8L128.9,1039.8z"/>
		<path class="st1" d="M144,1076.7c-38.1,0-69.1,31-69.1,69.1l0,0c0,1.9,0.1,3.9,0.3,5.8c1.5,22.1,11.3,36.1,20.2,47.3
			c8.8,11.1,16.1,19.2,16.1,30.6c0,2.5,2,4.6,4.5,4.7s4.6-2,4.7-4.5c0,0,0-0.1,0-0.1c0-15.3-9.5-25.5-18.1-36.3
			c-8.6-10.8-16.9-22.5-18.2-42.2c0,0,0-0.1,0-0.1c-0.2-1.7-0.2-3.4-0.3-5.1c0-33.1,26.7-59.8,59.9-59.8c33.1,0,59.9,26.7,59.9,59.9
			c0,2-0.1,4-0.3,6c0,0,0,0.1,0,0.1c-1.5,19.3-9.8,30.8-18.3,41.5c-8.5,10.7-17.9,20.9-17.9,36.1c0,2.5,2,4.6,4.5,4.7
			c2.5,0,4.6-2,4.7-4.5c0,0,0-0.1,0-0.1c0-11.4,7.1-19.3,15.9-30.4c8.8-11,18.6-24.9,20.3-46.6c0.2-2.3,0.3-4.5,0.3-6.8l0,0
			C213.1,1107.6,182.1,1076.6,144,1076.7L144,1076.7z"/>
		<path class="st2" d="M111,1224.9l0.3,4.9l0.5,8.7v36.7c0,7.6,6.2,13.8,13.8,13.8h36.8c7.6,0,13.8-6.2,13.8-13.8v-36.7l0.6-13.5
			H111L111,1224.9z M120.7,1234.1h46.4l-0.2,4.1v36.9c0,2.6-2,4.6-4.6,4.6h-36.8c-2.6,0-4.6-2-4.6-4.6v-37L120.7,1234.1z"/>
		<path class="st3" d="M111.8,1242.8c-2.5,0-4.6,2-4.7,4.5c0,2.5,2,4.6,4.5,4.7c0,0,0.1,0,0.1,0h64.3c2.5,0,4.6-2,4.7-4.5
			c0-2.5-2-4.6-4.5-4.7c0,0-0.1,0-0.1,0H111.8z M111.8,1261.3c-2.5,0-4.6,2-4.7,4.5c0,2.5,2,4.6,4.5,4.7c0,0,0.1,0,0.1,0h64.3
			c2.5,0,4.6-2,4.7-4.5c0-2.5-2-4.6-4.5-4.7c0,0-0.1,0-0.1,0H111.8z"/>
	</g>
</g>
</svg>
