<?xml version="1.0" encoding="utf-8"?>
<!-- Generator: Adobe Illustrator 24.2.1, SVG Export Plug-In . SVG Version: 6.00 Build 0)  -->
<svg version="1.1" id="SvgjsSvg1018" xmlns:svgjs="http://svgjs.com/svgjs"
	 xmlns="http://www.w3.org/2000/svg" xmlns:xlink="http://www.w3.org/1999/xlink" x="0px" y="0px" viewBox="0 0 288 288"
	 style="enable-background:new 0 0 288 288;" xml:space="preserve">
<style type="text/css">
	.st0{fill:#E6E6E6;}
</style>
<g id="SvgjsG1020" transform="matrix(1,0,0,1,0,0)">
	<path class="st0" d="M87,156.8l91.5,89.9c6.4,6.4,16.1,6.4,22.5,0l0,0c6.4-6.4,6.4-16.1,0-22.5L122.3,144L201,63.7
		c6.4-6.4,6.4-16.1,0-22.5c-3.2-3.2-6.4-4.8-11.2-4.8c-4.8,0-8,1.6-11.2,4.8L87,131.2C80.6,139.2,80.6,148.8,87,156.8
		C87,155.2,87,155.2,87,156.8z"/>
</g>
</svg>
