<?xml version="1.0" encoding="utf-8"?>
<!-- Generator: Adobe Illustrator 24.2.1, SVG Export Plug-In . SVG Version: 6.00 Build 0)  -->
<svg version="1.1" id="SvgjsSvg1043" xmlns:svgjs="http://svgjs.com/svgjs"
	 xmlns="http://www.w3.org/2000/svg" xmlns:xlink="http://www.w3.org/1999/xlink" x="0px" y="0px" viewBox="0 0 288 288"
	 style="enable-background:new 0 0 288 288;" xml:space="preserve">
<style type="text/css">
	.st0{fill:#E6E6E6;}
</style>
<g id="SvgjsG1045" transform="matrix(1,0,0,1,0,0)">
	<path class="st0" d="M147,110.5c-16.8,0-30.5,13.7-30.5,30.5s13.7,30.5,30.5,30.5s30.5-13.7,30.5-30.5c0,0,0,0,0,0
		C177.5,124.2,163.8,110.5,147,110.5z M269.1,80.4c-0.1-9.5-1.8-18.9-5.2-27.8C259,39.4,248.6,29,235.4,24
		c-8.9-3.4-18.3-5.1-27.8-5.2C191.8,18,187.1,18,147,18s-44.8,0-60.6,0.9c-9.5,0.1-18.9,1.8-27.8,5.2C45.4,29,35,39.4,30,52.6
		c-3.4,8.9-5.1,18.3-5.2,27.8C24,96.2,24,100.9,24,141s0,44.8,0.9,60.6c0.1,9.5,1.9,19,5.2,27.9c2.5,6.5,6.3,12.3,11.2,17.2
		c4.9,4.9,10.8,8.8,17.3,11.2c8.9,3.4,18.3,5.1,27.8,5.2c15.9,0.9,20.5,0.9,60.6,0.9s44.8,0,60.6-0.9c9.5-0.1,18.9-1.8,27.8-5.2
		c6.5-2.4,12.4-6.2,17.3-11.2c4.9-4.9,8.7-10.7,11.2-17.2c3.3-8.9,5.1-18.4,5.2-27.9c0.9-15.9,0.9-20.5,0.9-60.6
		S270,96.2,269.1,80.4z M237.9,178.8c-0.4,7.6-2,15.1-4.8,22.1c-4.8,11.9-14.3,21.4-26.2,26.2c-7.1,2.6-14.7,4.1-22.3,4.3
		c-9.7,0-12.3,0-37.6,0s-27.9,0-37.6,0c-7.6-0.2-15.1-1.7-22.3-4.3c-6.1-2.3-11.6-5.9-16.1-10.6c-4.5-4.4-7.9-9.7-10.1-15.6
		c-2.6-7.1-4.1-14.7-4.2-22.3c0-9.7,0-12.3,0-37.6s0-27.9,0-37.6c0.1-7.6,1.5-15.1,4.2-22.3C63.2,75,66.8,69.5,71.5,65
		c4.4-4.4,9.8-7.9,15.6-10.1c7.1-2.6,14.7-4.1,22.3-4.3l0,0c9.7,0,12.3,0,37.6,0s27.9,0,37.6,0c7.6,0.2,15.1,1.7,22.3,4.3
		c6.1,2.3,11.6,5.9,16.1,10.6c4.5,4.4,7.9,9.7,10.1,15.6c2.6,7.1,4.1,14.7,4.3,22.3c0,9.7,0,12.3,0,37.6s0.9,27.9,0.5,37.6V178.8z
		 M218.2,87.2c-3-8-9.3-14.4-17.3-17.3c-5.5-1.9-11.2-2.8-17-2.7c-9.6,0-12.3,0-36.9,0s-27.3,0-36.9,0c-5.8,0.1-11.5,1.1-17,3.2
		c-7.9,2.8-14.2,8.9-17.3,16.7c-1.8,5.5-2.7,11.2-2.6,17c0,9.6,0,12.3,0,36.9s0,27.3,0,36.9c0.1,5.8,1.2,11.5,3.2,17
		c3,8,9.3,14.4,17.3,17.3c5.2,1.9,10.8,3,16.4,3.2l0,0c9.6,0,12.3,0,36.9,0s27.3,0,36.9,0c5.8-0.1,11.5-1.1,17-3.2
		c8-3,14.4-9.3,17.3-17.3c2.1-5.4,3.1-11.2,3.2-17c0-9.6,0-12.3,0-36.9s0-27.3,0-36.9c0-5.8-1.1-11.6-3.2-17L218.2,87.2z M147,188
		c-25.9,0-46.9-21-46.9-46.9c0,0,0-0.1,0-0.1l0,0c0-25.9,21-47,47-47c25.9,0,47,21,47,47s-21,47-47,47C147.1,188,147,188,147,188z
		 M196.2,103.2c-6.1-0.6-10.5-6.1-9.8-12.2c0.5-5.2,4.7-9.3,9.8-9.8l0,0c6.1,0.6,10.5,6.1,9.8,12.2
		C205.5,98.6,201.4,102.7,196.2,103.2z"/>
</g>
</svg>
