<?xml version="1.0" encoding="utf-8"?>
<!-- Generator: Adobe Illustrator 24.2.1, SVG Export Plug-In . SVG Version: 6.00 Build 0)  -->
<svg version="1.1" id="SvgjsSvg1038" xmlns:svgjs="http://svgjs.com/svgjs"
	 xmlns="http://www.w3.org/2000/svg" xmlns:xlink="http://www.w3.org/1999/xlink" x="0px" y="0px" viewBox="0 0 288 288"
	 style="enable-background:new 0 0 288 288;" xml:space="preserve">
<style type="text/css">
	.st0{fill:#E6E6E6;}
</style>
<g id="SvgjsG1040" transform="matrix(1,0,0,1,0,0)">
	<path class="st0" d="M250.2,19H42.7c-9.8-0.1-17.9,7.7-18,17.5c0,0,0,0,0,0v210c0.1,9.8,8.2,17.7,18,17.5c0,0,0,0,0,0h207.5
		c9.8,0.1,17.9-7.7,18-17.5c0,0,0,0,0,0v-210C268.1,26.7,260.1,18.9,250.2,19C250.2,19,250.2,19,250.2,19z M98.6,224.1H61.8V113.8
		h36.7V224.1z M80.2,98.4L80.2,98.4c-10.6,0-19.1-8.6-19.1-19.1s8.6-19.1,19.1-19.1c10.6-1.2,20.1,6.4,21.3,16.9
		c1.2,10.6-6.4,20.1-16.9,21.3C83.1,98.5,81.7,98.5,80.2,98.4z M231.1,224.1h-36.7v-59.2c0-14.8-5.3-24.5-18.6-24.5
		c-8.5,0.1-16,5.4-18.9,13.4c-1,2.9-1.4,5.9-1.2,8.9v61.2h-36.7c0,0,0-100.2,0-110.2h36.7v15.6c6.8-11.8,19.6-18.9,33.2-18.4
		c24.5,0,42.3,15.8,42.3,49.7V224.1z"/>
</g>
</svg>
