<?xml version="1.0" encoding="utf-8"?>
<!-- Generator: Adobe Illustrator 24.2.1, SVG Export Plug-In . SVG Version: 6.00 Build 0)  -->
<svg version="1.1" id="Layer_1" xmlns="http://www.w3.org/2000/svg" xmlns:xlink="http://www.w3.org/1999/xlink" x="0px" y="0px"
	 viewBox="0 0 49.1 11" style="enable-background:new 0 0 49.1 11;" xml:space="preserve">
<style type="text/css">
	.st0{fill:#FCFCFC;}
</style>
<g>
	<path class="st0" d="M4.3,1.9v8.8H2.4V1.9H0.8V0.3h5.1v1.6H4.3z"/>
	<path class="st0" d="M10.8,10.7V6H9.2v4.7H7.4V0.3h1.8v4.2h1.5V0.3h1.8v10.4H10.8z"/>
	<path class="st0" d="M18.3,10.8c-0.1,0-0.3,0-0.4,0c-0.6,0-1.2-0.1-1.7-0.4c-0.5-0.2-0.9-0.6-1.2-1.1c-0.3-0.5-0.6-1.1-0.7-1.7
		C14.1,7,14,6.2,14,5.5c0-0.8,0.1-1.7,0.3-2.5c0.2-0.6,0.5-1.2,0.9-1.6C15.6,1,16,0.7,16.5,0.5c0.5-0.2,1-0.3,1.5-0.3
		c0.1,0,0.2,0,0.4,0h0.3l0.1,1.6h-0.3h-0.3c-0.3,0-0.6,0.1-0.9,0.2c-0.3,0.1-0.5,0.3-0.7,0.5c-0.2,0.3-0.4,0.6-0.5,0.9
		c-0.1,0.4-0.2,0.8-0.3,1.2h2.8v1.5h-2.8c0,0.4,0.1,0.8,0.2,1.2c0.1,0.3,0.2,0.7,0.5,1c0.2,0.3,0.4,0.5,0.7,0.7
		c0.3,0.2,0.6,0.3,1,0.2c0.1,0,0.3,0,0.4,0c0.1,0,0.3-0.1,0.4-0.1l-0.1,1.6L18.3,10.8z"/>
	<path class="st0" d="M26.8,1.9v8.8H25V1.9h-1.7V0.3h5.1v1.6H26.8z"/>
	<path class="st0" d="M30,10.7V0.3h1.8v10.4H30z"/>
	<path class="st0" d="M33.5,3.2c0-0.4,0.1-0.8,0.2-1.3c0.1-0.3,0.2-0.7,0.5-1c0.2-0.3,0.4-0.5,0.7-0.6c0.3-0.1,0.6-0.2,1-0.2
		c0.2,0,0.4,0,0.6,0.1c0.2,0.1,0.4,0.1,0.6,0.2c0.2,0.1,0.3,0.2,0.5,0.4c0.1,0.2,0.3,0.4,0.4,0.6c0.2-0.4,0.4-0.7,0.8-1
		c0.3-0.2,0.7-0.3,1.1-0.3c0.7,0,1.3,0.2,1.8,0.8c0.4,0.7,0.7,1.5,0.6,2.2v7.5h-1.8V3.4c0-0.4,0-0.8-0.2-1.1
		c-0.2-0.3-0.6-0.4-0.9-0.2C39.1,2.1,39,2.2,39,2.3c-0.2,0.3-0.2,0.7-0.2,1.1v7.3h-1.8V3.4c0-0.4,0-0.8-0.2-1.1
		c-0.1-0.2-0.3-0.3-0.6-0.3c-0.3,0-0.5,0.1-0.6,0.3c-0.1,0.4-0.2,0.7-0.2,1.1v7.3h-1.8V3.2z"/>
	<path class="st0" d="M47.9,10.8c-0.1,0-0.3,0-0.4,0c-0.6,0-1.2-0.1-1.7-0.4c-0.5-0.2-0.9-0.6-1.2-1.1c-0.4-0.5-0.6-1.1-0.7-1.7
		c-0.2-0.7-0.3-1.4-0.3-2.2c0-0.8,0.1-1.7,0.3-2.5c0.2-0.6,0.5-1.2,0.9-1.6c0.3-0.4,0.8-0.7,1.3-0.9c0.5-0.2,1-0.3,1.5-0.3
		c0.1,0,0.2,0,0.4,0h0.3l0.1,1.6h-0.3h-0.3c-0.3,0-0.6,0.1-0.9,0.2c-0.3,0.1-0.5,0.3-0.7,0.5c-0.2,0.3-0.4,0.6-0.5,0.9
		c-0.1,0.4-0.2,0.8-0.3,1.2h2.8v1.5h-2.8c0,0.4,0,0.9,0.2,1.3c0.1,0.3,0.3,0.7,0.5,1c0.2,0.3,0.4,0.5,0.7,0.7c0.3,0.2,0.6,0.2,1,0.2
		c0.1,0,0.3,0,0.4,0c0.1,0,0.3-0.1,0.4-0.1l-0.1,1.6L47.9,10.8z"/>
</g>
</svg>
