<svg id="Layer_1" data-name="Layer 1" xmlns="http://www.w3.org/2000/svg" viewBox="0 0 49.12 11"><path d="M4.05,6.26v9.09H2.18V6.26H.44V4.65H5.75V6.26Z" transform="translate(-0.44 -4.5)"/><path d="M10.76,15.35V10.53H9.19v4.82H7.3V4.65H9.19V9h1.57V4.65h1.87v10.7Z" transform="translate(-0.44 -4.5)"/><path d="M18.58,15.48a2.55,2.55,0,0,1-.39,0,4,4,0,0,1-1.76-.38A3.21,3.21,0,0,1,15.16,14a4.93,4.93,0,0,1-.75-1.75A9.57,9.57,0,0,1,14.14,10a7.91,7.91,0,0,1,.36-2.55,4.89,4.89,0,0,1,.91-1.7,3.21,3.21,0,0,1,1.3-.92,4.06,4.06,0,0,1,1.51-.29,2.24,2.24,0,0,1,.38,0l.32,0L19,6.22l-.36,0h-.34a2.15,2.15,0,0,0-.91.18,2.27,2.27,0,0,0-.72.55,3.54,3.54,0,0,0-.49.93,5,5,0,0,0-.26,1.26h2.87v1.59H15.94A4.75,4.75,0,0,0,16.11,12a3.19,3.19,0,0,0,.47,1,2.27,2.27,0,0,0,.7.68,1.8,1.8,0,0,0,1,.24,2.76,2.76,0,0,0,.44,0,1.9,1.9,0,0,0,.38-.13L19,15.42Z" transform="translate(-0.44 -4.5)"/><path d="M27.35,6.26v9.09H25.48V6.26H23.74V4.65h5.31V6.26Z" transform="translate(-0.44 -4.5)"/><path d="M30.6,15.35V4.65h1.89v10.7Z" transform="translate(-0.44 -4.5)"/><path d="M34.27,7.6a4.81,4.81,0,0,1,.17-1.3,2.93,2.93,0,0,1,.47-1,2,2,0,0,1,.76-.6,2.38,2.38,0,0,1,1-.21,3.31,3.31,0,0,1,.64.06,2.43,2.43,0,0,1,.57.23,2.23,2.23,0,0,1,.47.41,4.32,4.32,0,0,1,.4.63,2.29,2.29,0,0,1,.81-1,2.14,2.14,0,0,1,1.17-.3,2.24,2.24,0,0,1,1.81.78,3.67,3.67,0,0,1,.63,2.32v7.75H41.28V7.79a2.54,2.54,0,0,0-.19-1.15.71.71,0,0,0-1.21,0,2.23,2.23,0,0,0-.23,1.15v7.56H37.78V7.79a2.56,2.56,0,0,0-.18-1.15A.69.69,0,0,0,37,6.3a.67.67,0,0,0-.64.34,2.54,2.54,0,0,0-.19,1.15v7.56H34.27Z" transform="translate(-0.44 -4.5)"/><path d="M49.09,15.48a2.75,2.75,0,0,1-.4,0,4,4,0,0,1-1.76-.38A3.18,3.18,0,0,1,45.67,14a4.93,4.93,0,0,1-.76-1.75A9.6,9.6,0,0,1,44.65,10,7.65,7.65,0,0,1,45,7.41a4.72,4.72,0,0,1,.9-1.7,3.17,3.17,0,0,1,1.31-.92,4,4,0,0,1,1.51-.29,2.17,2.17,0,0,1,.37,0l.33,0,.09,1.66-.36,0h-.34a2.18,2.18,0,0,0-.91.18,2.12,2.12,0,0,0-.71.55,3,3,0,0,0-.49.93,4.59,4.59,0,0,0-.27,1.26h2.87v1.59H46.44A4.75,4.75,0,0,0,46.61,12a3.42,3.42,0,0,0,.47,1,2.27,2.27,0,0,0,.7.68,1.86,1.86,0,0,0,1,.24,2.63,2.63,0,0,0,.43,0,1.71,1.71,0,0,0,.38-.13l-.08,1.7Z" transform="translate(-0.44 -4.5)"/></svg>