<?xml version="1.0" encoding="utf-8"?>
<!-- Generator: Adobe Illustrator 24.2.1, SVG Export Plug-In . SVG Version: 6.00 Build 0)  -->
<svg version="1.1" id="SvgjsSvg1013" xmlns:svgjs="http://svgjs.com/svgjs"
	 xmlns="http://www.w3.org/2000/svg" xmlns:xlink="http://www.w3.org/1999/xlink" x="0px" y="0px" viewBox="0 0 50 50"
	 style="enable-background:new 0 0 50 50;" xml:space="preserve">
<style type="text/css">
	.st0{fill:#E6E6E6;}
</style>
<g id="SvgjsG1015" transform="matrix(1,0,0,1,0,0)">
	<path class="st0" d="M19.9,22.3H9c-2.2,0-4-1.8-4-4V7.4c0-2.2,1.8-4,4-4h10.9c2.2,0,4,1.8,4,4v10.9C24,20.5,22.2,22.3,19.9,22.3z
		 M9,4.6c-1.5,0-2.7,1.2-2.7,2.7v10.9C6.3,19.8,7.5,21,9,21h10.9c1.5,0,2.7-1.2,2.7-2.7V7.4c0-1.5-1.2-2.7-2.7-2.7H9z M42.8,22.3
		H31.9c-2.2,0-4-1.8-4-4V7.4c0-2.2,1.8-4,4-4h10.9c2.2,0,4,1.8,4,4v10.9C46.9,20.5,45.1,22.3,42.8,22.3z M31.9,4.6
		c-1.5,0-2.7,1.2-2.7,2.7v10.9c0,1.5,1.2,2.7,2.7,2.7h10.9c1.5,0,2.7-1.2,2.7-2.7V7.4c0-1.5-1.2-2.7-2.7-2.7H31.9z M19.9,45.2H9
		c-2.2,0-4-1.8-4-4V30.3c0-2.2,1.8-4,4-4h10.9c2.2,0,4,1.8,4,4v10.9C24,43.4,22.2,45.2,19.9,45.2z M9,27.6c-1.5,0-2.7,1.2-2.7,2.7
		v10.9c0,1.5,1.2,2.7,2.7,2.7h10.9c1.5,0,2.7-1.2,2.7-2.7V30.3c0-1.5-1.2-2.7-2.7-2.7H9z M42.8,45.2H31.9c-2.2,0-4-1.8-4-4V30.3
		c0-2.2,1.8-4,4-4h10.9c2.2,0,4,1.8,4,4v10.9C46.9,43.4,45.1,45.2,42.8,45.2z M31.9,27.6c-1.5,0-2.7,1.2-2.7,2.7v10.9
		c0,1.5,1.2,2.7,2.7,2.7h10.9c1.5,0,2.7-1.2,2.7-2.7V30.3c0-1.5-1.2-2.7-2.7-2.7H31.9z"/>
</g>
</svg>
