<?xml version="1.0" encoding="utf-8"?>
<!-- Generator: Adobe Illustrator 24.2.1, SVG Export Plug-In . SVG Version: 6.00 Build 0)  -->
<svg version="1.1" id="SvgjsSvg1013" xmlns:svgjs="http://svgjs.com/svgjs"
	 xmlns="http://www.w3.org/2000/svg" xmlns:xlink="http://www.w3.org/1999/xlink" x="0px" y="0px" viewBox="0 0 25 25"
	 style="enable-background:new 0 0 25 25;" xml:space="preserve">
<style type="text/css">
	.st0{fill:#E6E6E6;}
</style>
<g id="SvgjsG1015" transform="matrix(1,0,0,1,0,0)">
	<path class="st0" d="M9.5,11.5H3.8c-1.1,0-2.1-0.9-2.1-2.1V3.8c0.1-1.1,1-2,2.1-2h5.6c1.1,0,2.1,0.9,2.1,2.1v5.6
		C11.5,10.6,10.5,11.5,9.5,11.5z M4.1,2.9c-0.6,0-1.2,0.6-1.2,1.2v5c0,0.7,0.5,1.2,1.2,1.2h5c0.7,0,1.2-0.5,1.2-1.2v-5
		c0-0.7-0.5-1.2-1.2-1.2H4.1z M21.3,11.5h-5.6c-1.1,0-2.1-0.9-2.1-2.1V3.8c0-1.1,0.9-2.1,2.1-2.1h5.6c1.1,0,2.1,0.9,2.1,2.1v5.6
		C23.3,10.6,22.4,11.5,21.3,11.5z M16.1,2.9c-0.7,0-1.2,0.5-1.2,1.2v5c0,0.7,0.5,1.2,1.2,1.2h5c0.7,0,1.2-0.5,1.2-1.2v-5
		c0-0.7-0.5-1.2-1.2-1.2H16.1z M9.5,23.3H3.8c-1.1,0-2.1-0.9-2.1-2.1v-5.6c0-1.1,0.9-2.1,2.1-2.1h5.6c1.1,0,2.1,0.9,2.1,2.1v5.6
		C11.5,22.4,10.5,23.3,9.5,23.3z M4.1,14.7c-0.7,0-1.2,0.5-1.2,1.2v5c0,0.7,0.5,1.2,1.2,1.2h5c0.7,0,1.2-0.5,1.2-1.2v-5
		c0-0.7-0.5-1.2-1.2-1.2H4.1z M21.3,23.3h-5.6c-1.1,0-2.1-0.9-2.1-2.1v-5.6c0-1.1,0.9-2.1,2.1-2.1h5.6c1.1,0,2.1,0.9,2.1,2.1v5.6
		C23.3,22.4,22.4,23.3,21.3,23.3z M16,14.7c-0.7,0-1.2,0.5-1.2,1.2v5c0,0.7,0.5,1.2,1.2,1.2h5c0.7,0,1.2-0.5,1.2-1.2v-5
		c0-0.7-0.5-1.2-1.2-1.2H16z"/>
</g>
</svg>
