<?xml version="1.0" encoding="utf-8"?>
<!-- Generator: Adobe Illustrator 24.2.1, SVG Export Plug-In . SVG Version: 6.00 Build 0)  -->
<svg version="1.1" id="SvgjsSvg1001" xmlns:svgjs="http://svgjs.com/svgjs"
	 xmlns="http://www.w3.org/2000/svg" xmlns:xlink="http://www.w3.org/1999/xlink" x="0px" y="0px" viewBox="0 0 288 288"
	 style="enable-background:new 0 0 288 288;" xml:space="preserve">
<style type="text/css">
	.st0{fill:#FFFFFF;}
	.st1{fill:#2C2C2D;}
</style>
<g id="SvgjsG1008">
	<g id="XMLID_1_">
		<g>
			<path class="st0" d="M187.9,133.9c5.5,0,10,4.4,10,10c0,5.5-4.4,10-10,10.1h-34.1v34c0,5.5-4.4,10-10,10c-5.5,0-10-4.4-10-10v-34
				h-34c-5.5-0.1-10-4.6-10-10.1c0-2.7,1.1-5.2,2.9-7.1c1.9-1.8,4.4-2.9,7.1-2.9h34v-33.8c0-5.5,4.4-10,10-10c5.5,0,10,4.4,10,10
				v33.8H187.9z"/>
			<path class="st1" d="M264,88V200c0,40.7-23.2,64-64,64H88c-40.9,0-64-23.3-64-64V88C24,47,47,24,88,24h112
				C240.7,24,264,47,264,88z M197.9,143.9c0-5.5-4.4-10-10-10h-34.1v-33.8c0-5.5-4.4-10-10-10c-5.5,0-10,4.4-10,10v33.8h-34
				c-2.6,0-5.2,1.1-7.1,2.9c-1.8,1.9-2.9,4.4-2.9,7.1c0,5.5,4.4,10,10,10.1h34v34c0,5.5,4.4,10,10,10c5.5,0,10-4.4,10-10v-34h34.1
				C193.4,153.8,197.9,149.4,197.9,143.9z"/>
		</g>
		<g>
		</g>
	</g>
</g>
</svg>
