<?xml version="1.0" encoding="utf-8"?>
<!-- Generator: Adobe Illustrator 24.2.1, SVG Export Plug-In . SVG Version: 6.00 Build 0)  -->
<svg version="1.1" id="SvgjsSvg1023" xmlns:svgjs="http://svgjs.com/svgjs"
	 xmlns="http://www.w3.org/2000/svg" xmlns:xlink="http://www.w3.org/1999/xlink" x="0px" y="0px" viewBox="0 0 288 288"
	 style="enable-background:new 0 0 288 288;" xml:space="preserve">
<style type="text/css">
	.st0{fill:#E6E6E6;}
</style>
<g id="SvgjsG1025" transform="matrix(1,0,0,1,0,0)">
	<path class="st0" d="M220.8,165.6c-14.7,0.1-28.6,6.8-37.9,18.2l-62.7-28.9c2.9-9,2.9-18.8,0-27.8l62.7-28.9
		c17.3,20.9,48.4,23.8,69.3,6.5c20.9-17.3,23.8-48.4,6.5-69.3s-48.4-23.8-69.3-6.5c-11.4,9.4-17.9,23.5-17.8,38.3
		c0,2.9,0.3,5.9,0.9,8.7l-64.9,29.9c-19.4-19-50.6-18.6-69.6,0.8s-18.6,50.6,0.8,69.6c19.1,18.7,49.7,18.7,68.8,0l64.9,29.9
		c-0.5,2.9-0.8,5.8-0.9,8.7c0,27.2,22,49.2,49.2,49.2s49.2-22,49.2-49.2S248,165.6,220.8,165.6z M220.8,42.6
		c13.6,0,24.6,11,24.6,24.6s-11,24.6-24.6,24.6c-13.6,0-24.6-11-24.6-24.6S207.2,42.6,220.8,42.6z M73.2,165.6
		c-13.6,0-24.6-11-24.6-24.6s11-24.6,24.6-24.6s24.6,11,24.6,24.6S86.8,165.6,73.2,165.6z M220.8,239.4c-13.6,0-24.6-11-24.6-24.6
		c0-13.6,11-24.6,24.6-24.6c13.6,0,24.6,11,24.6,24.6C245.4,228.4,234.4,239.4,220.8,239.4z"/>
</g>
</svg>
