<?xml version="1.0" encoding="utf-8"?>
<!-- Generator: Adobe Illustrator 24.2.1, SVG Export Plug-In . SVG Version: 6.00 Build 0)  -->
<svg version="1.1" id="SvgjsSvg1033" xmlns:svgjs="http://svgjs.com/svgjs"
	 xmlns="http://www.w3.org/2000/svg" xmlns:xlink="http://www.w3.org/1999/xlink" x="0px" y="0px" viewBox="0 0 288 288"
	 style="enable-background:new 0 0 288 288;" xml:space="preserve">
<style type="text/css">
	.st0{fill:#E6E6E6;}
</style>
<g id="SvgjsG1035" transform="matrix(1,0,0,1,0,0)">
	<path class="st0" d="M271,64.6c-9.3,4-19.1,6.7-29.1,7.9c10.6-6.3,18.5-16.3,22.4-28c-10,5.9-20.9,10.1-32.2,12.3
		c-19-20.6-51-21.9-71.6-2.9c-13.5,12.4-19.2,31.2-14.9,49.1c-40.7-2.1-78.7-21.3-104.4-53c-4.5,7.8-6.8,16.6-6.8,25.6
		c0,16.9,8.4,32.7,22.5,42.1c-8.1-0.2-15.9-2.4-23-6.3v0.6c0.1,24.1,17.2,44.7,40.8,49.4c-4.4,1.3-9,2-13.6,2.1
		c-3.2,0-6.4-0.3-9.5-0.9c6.7,20.6,25.7,34.7,47.3,35.1c-17.8,14-39.8,21.7-62.5,21.7c-4.1,0-8.3-0.2-12.3-0.7
		c23.1,14.9,50.1,22.9,77.7,22.8c79,0.8,143.8-62.6,144.6-141.6c0-0.9,0-1.7,0-2.6c0-2.1,0-4.3,0-6.5C256,83.5,264.3,74.7,271,64.6z
		"/>
</g>
</svg>
