<?xml version="1.0" encoding="utf-8"?>
<!-- Generator: Adobe Illustrator 24.2.1, SVG Export Plug-In . SVG Version: 6.00 Build 0)  -->
<svg version="1.1" id="Layer_1" xmlns="http://www.w3.org/2000/svg" xmlns:xlink="http://www.w3.org/1999/xlink" x="0px" y="0px"
	 viewBox="0 0 48 48" style="enable-background:new 0 0 48 48;" xml:space="preserve">
<style type="text/css">
	.st0{fill:#FFFFFF;}
	.st1{fill:#60C5B8;}
</style>
<g>
	<path class="st0" d="M28.5,44h-8.9c-0.4,0-0.9-0.2-1-0.7l-1-2.8c-1.7-0.7-3.3-1.6-4.8-2.8L10,38.3c-0.4,0.1-0.8-0.1-1.1-0.5
		l-4.5-7.7c-0.2-0.4-0.2-0.8,0.1-1.1l1.9-2.2c-0.3-1.8-0.3-3.7,0-5.5L4.6,19c-0.3-0.3-0.3-0.8-0.1-1.1l4.5-7.7
		C9.1,9.7,9.6,9.5,10,9.6l2.9,0.5c1.4-1.2,3.1-2.1,4.8-2.8l1-2.8c0.1-0.4,0.6-0.7,1-0.7h8.9c0.4,0,0.9,0.2,1,0.7l1,2.8
		c1.7,0.7,3.3,1.6,4.8,2.8L38,9.6c0.4-0.1,0.8,0.1,1.1,0.5l4.5,7.7c0.2,0.4,0.2,0.8-0.1,1.1l-1.9,2.2c0.3,1.8,0.3,3.7,0,5.5l1.9,2.3
		c0.3,0.3,0.3,0.8,0.1,1.1l-4.5,7.7c-0.2,0.4-0.6,0.6-1.1,0.5l-2.9-0.5c-1.4,1.2-3.1,2.1-4.8,2.8l-1,2.8C29.2,43.7,28.9,44,28.5,44z
		 M20.2,42h7.5l0.9-2.5c0.1-0.3,0.3-0.5,0.6-0.6c1.8-0.6,3.5-1.6,5-2.9c0.2-0.2,0.5-0.3,0.8-0.2l2.6,0.5l3.8-6.5l-1.8-2
		c-0.2-0.2-0.3-0.5-0.2-0.8c0.4-1.9,0.4-3.9,0-5.8c-0.1-0.3,0-0.6,0.2-0.8l1.8-2l-3.8-6.5l-2.6,0.5c-0.3,0.1-0.6,0-0.8-0.2
		c-1.5-1.3-3.2-2.2-5-2.9c-0.3-0.1-0.5-0.3-0.6-0.6L27.8,6h-7.5l-0.9,2.5C19.3,8.8,19,9,18.8,9.1c-1.8,0.6-3.5,1.6-5,2.9
		c-0.2,0.2-0.5,0.3-0.8,0.2l-2.6-0.5l-3.7,6.5l1.8,2c0.2,0.2,0.3,0.5,0.2,0.8c-0.4,1.9-0.4,3.9,0,5.8c0.1,0.3,0,0.6-0.2,0.8l-1.8,2
		l3.8,6.5l2.6-0.5c0.3-0.1,0.6,0,0.8,0.2c1.5,1.3,3.2,2.2,5,2.9c0.3,0.1,0.5,0.3,0.6,0.6L20.2,42z"/>
	<path class="st1" d="M24,37c-1.9,0-3.7-0.4-5.4-1.2c-0.4-0.2-0.7-0.3-1.1-0.6c-6.2-3.6-8.3-11.5-4.8-17.8s11.5-8.3,17.8-4.8
		s8.3,11.5,4.8,17.8c-1.1,2-2.8,3.6-4.8,4.8c-0.4,0.2-0.7,0.4-1.1,0.5C27.7,36.6,25.9,37,24,37z M24,13c-6.1,0-11,4.9-11,11
		c0,3.9,2.1,7.5,5.5,9.5c0.3,0.2,0.6,0.3,0.9,0.5c2.9,1.4,6.3,1.4,9.2,0c0.3-0.1,0.6-0.3,0.9-0.5c5.3-3,7.1-9.8,4-15
		C31.5,15.1,27.9,13,24,13z"/>
	<path class="st1" d="M24,37c-1.9,0-3.7-0.4-5.4-1.2c-0.4-0.2-0.6-0.5-0.6-0.9V25c0-0.2,0.1-0.4,0.1-0.5l5-8
		c0.3-0.5,0.9-0.6,1.4-0.3c0.1,0.1,0.2,0.2,0.3,0.3l5,8c0.1,0.2,0.2,0.3,0.1,0.5v9.9c0,0.4-0.2,0.7-0.6,0.9C27.7,36.6,25.9,37,24,37
		z M20,34.2c2.6,1,5.4,1,8,0v-9l-4-6.4l-4,6.4V34.2z"/>
	<path class="st1" d="M24,29c-3.4,0-6-1.8-6-4c0-0.6,0.4-1,1-1s1,0.4,1,1c0,0.9,1.7,2,4,2s4-1.1,4-2c0-0.6,0.4-1,1-1s1,0.4,1,1
		C30,27.2,27.4,29,24,29z M24,23c-1.2,0-2.3-0.4-3.2-1.1c-0.4-0.3-0.5-0.9-0.2-1.3l2.5-4.1c0.3-0.5,0.9-0.6,1.4-0.3
		c0.1,0.1,0.2,0.2,0.3,0.3l2.5,4.1c0.3,0.4,0.2,1-0.2,1.3C26.3,22.6,25.2,23,24,23z M22.8,20.8c0.7,0.3,1.6,0.3,2.3,0L24,18.9
		L22.8,20.8z"/>
</g>
</svg>
