<?xml version="1.0" encoding="utf-8"?>
<!-- Generator: Adobe Illustrator 24.2.1, SVG Export Plug-In . SVG Version: 6.00 Build 0)  -->
<svg version="1.1" id="Layer_1" xmlns="http://www.w3.org/2000/svg" xmlns:xlink="http://www.w3.org/1999/xlink" x="0px" y="0px"
	 viewBox="0 0 64 64" style="enable-background:new 0 0 64 64;" xml:space="preserve">
<style type="text/css">
	.st0{fill:#FCFCFC;}
	.st1{fill:#60C5B8;}
</style>
<g>
	<path class="st0" d="M59.7,5.3H4.3C2.5,5.3,1.1,6.8,1.2,8.6v34.5c-0.1,1.8,1.3,3.2,3.1,3.3h22.6v4.1h-7.2c-0.6,0-1,0.5-1,1v5.1
		h-2.1v2.1h30.8v-2.1h-2.1v-5.1c0-0.6-0.5-1-1-1h-7.2v-4.1h22.6c1.8-0.1,3.1-1.5,3.1-3.3V8.6C62.9,6.8,61.5,5.3,59.7,5.3z M4.3,7.3
		h55.5c0.6,0.1,1.1,0.6,1,1.2v29.6H3.2V8.6C3.2,7.9,3.6,7.4,4.3,7.3z M43.3,56.7H20.7v-4.1h22.6V56.7z M35.1,50.5h-6.2v-4.1h6.2
		V50.5z M59.7,44.3H4.3c-0.6-0.1-1.1-0.6-1-1.2v-2.9h57.6v2.9C60.8,43.7,60.4,44.3,59.7,44.3z"/>
	<rect x="55.6" y="41.2" class="st1" width="2.1" height="2.1"/>
	<path class="st1" d="M34.1,25.8h2.6c0.1,0.3,0.2,0.6,0.4,0.9l-1.8,1.8c-0.4,0.4-0.4,1.1,0,1.5l2.9,2.9c0.4,0.4,1.1,0.4,1.5,0
		l1.8-1.8c0.3,0.1,0.6,0.3,0.9,0.4v2.6c0,0.6,0.5,1,1,1h4.1c0.6,0,1-0.5,1-1v-2.6c0.3-0.1,0.6-0.2,0.9-0.4l1.8,1.8
		c0.4,0.4,1.1,0.4,1.5,0l2.9-2.9c0.4-0.4,0.4-1.1,0-1.5l-1.8-1.8c0.1-0.3,0.3-0.6,0.4-0.9h2.6c0.6,0,1-0.5,1-1v-4.1c0-0.6-0.5-1-1-1
		h-2.6c-0.1-0.3-0.2-0.6-0.4-0.9l1.8-1.8c0.4-0.4,0.4-1.1,0-1.5l-2.9-2.9c-0.4-0.4-1.1-0.4-1.5,0l-1.8,1.8c-0.3-0.1-0.6-0.3-0.9-0.4
		v-2.6c0-0.6-0.5-1-1-1h-4.1c-0.6,0-1,0.5-1,1V14c-0.3,0.1-0.6,0.2-0.9,0.4l-1.8-1.8c-0.4-0.4-1.1-0.4-1.5,0l-2.9,2.9
		c-0.4,0.4-0.4,1.1,0,1.5l1.8,1.8c-0.1,0.3-0.3,0.6-0.4,0.9h-2.6c-0.6,0-1,0.5-1,1v4.1C33,25.4,33.5,25.8,34.1,25.8z M35.1,21.7h2.3
		c0.5,0,0.9-0.3,1-0.8c0.2-0.6,0.4-1.3,0.8-1.8c0.2-0.4,0.2-0.9-0.2-1.2l-1.6-1.6l1.5-1.5l1.6,1.6c0.3,0.3,0.8,0.4,1.2,0.2
		c0.6-0.3,1.2-0.6,1.8-0.8c0.5-0.1,0.8-0.5,0.8-1v-2.3h2.1v2.3c0,0.5,0.3,0.9,0.8,1c0.6,0.2,1.3,0.4,1.8,0.8
		c0.4,0.2,0.9,0.2,1.2-0.2l1.6-1.6l1.5,1.5l-1.6,1.6c-0.3,0.3-0.4,0.8-0.2,1.2c0.3,0.6,0.6,1.2,0.8,1.8c0.1,0.5,0.5,0.8,1,0.8h2.3
		v2.1h-2.3c-0.5,0-0.9,0.3-1,0.8c-0.2,0.6-0.4,1.3-0.8,1.8c-0.2,0.4-0.2,0.9,0.2,1.2l1.6,1.6l-1.5,1.5l-1.6-1.6
		c-0.3-0.3-0.8-0.4-1.2-0.2c-0.6,0.3-1.2,0.6-1.8,0.8c-0.5,0.1-0.8,0.5-0.8,1V33h-2.1v-2.3c0-0.5-0.3-0.9-0.8-1
		c-0.6-0.2-1.3-0.4-1.8-0.8c-0.4-0.2-0.9-0.2-1.2,0.2l-1.6,1.6l-1.5-1.5l1.6-1.6c0.3-0.3,0.4-0.8,0.2-1.2c-0.3-0.6-0.6-1.2-0.8-1.8
		c-0.1-0.5-0.5-0.8-1-0.8h-2.3V21.7z"/>
	<path class="st1" d="M45.4,27.9c2.8,0,5.1-2.3,5.1-5.1s-2.3-5.1-5.1-5.1s-5.1,2.3-5.1,5.1C40.2,25.6,42.5,27.9,45.4,27.9z
		 M45.4,19.7c1.7,0,3.1,1.4,3.1,3.1s-1.4,3.1-3.1,3.1s-3.1-1.4-3.1-3.1S43.7,19.7,45.4,19.7z M8.7,16.3l1.5-1.5l-1.3-1.3l1.3-1.3
		l-1.5-1.5l-2.1,2.1c-0.4,0.4-0.4,1.1,0,1.5L8.7,16.3z"/>
	<rect x="11.4" y="12.5" transform="matrix(0.6002 -0.7999 0.7999 0.6002 -5.1952 16.608)" class="st1" width="5.1" height="2.1"/>
	<path class="st1" d="M19.4,16.3l2.1-2.1c0.4-0.4,0.4-1.1,0-1.5l-2.1-2.1l-1.5,1.5l1.3,1.3l-1.3,1.3L19.4,16.3z"/>
	<rect x="23.8" y="14.5" width="2.1" height="2.1"/>
	<rect x="8.4" y="18.6" width="4.1" height="2.1"/>
	<rect x="14.5" y="18.6" width="2.1" height="2.1"/>
	<rect x="18.6" y="18.6" width="6.2" height="2.1"/>
	<rect x="26.9" y="18.6" width="2.1" height="2.1"/>
	<rect x="10.4" y="22.8" width="2.1" height="2.1"/>
	<rect x="14.5" y="22.8" width="4.1" height="2.1"/>
	<rect x="20.7" y="22.8" width="2.1" height="2.1"/>
	<rect x="24.8" y="22.8" width="4.1" height="2.1"/>
	<rect x="8.4" y="28.9" width="4.1" height="2.1"/>
	<rect x="14.5" y="28.9" width="2.1" height="2.1"/>
	<rect x="18.6" y="28.9" width="6.2" height="2.1"/>
	<rect x="26.9" y="28.9" width="2.1" height="2.1"/>
	<rect x="10.4" y="33" width="2.1" height="2.1"/>
	<rect x="14.5" y="33" width="4.1" height="2.1"/>
	<rect x="20.7" y="33" width="2.1" height="2.1"/>
	<rect x="24.8" y="33" width="4.1" height="2.1"/>
</g>
</svg>
